<svg width="30" height="30" viewBox="0 0 30 30" fill="none" xmlns="http://www.w3.org/2000/svg">
<path d="M11.0417 25.4167L9.26041 23.6667L11.2604 21.6667H11.0417C8.60416 21.6667 6.53645 20.8177 4.83853 19.1198C3.14061 17.4219 2.29166 15.3542 2.29166 12.9167C2.29166 10.4792 3.14061 8.41148 4.83853 6.71356C6.53645 5.01565 8.60416 4.16669 11.0417 4.16669H18.5417C20.9792 4.16669 23.0469 5.01565 24.7448 6.71356C26.4427 8.41148 27.2917 10.4792 27.2917 12.9167C27.2917 15.3542 26.4427 17.4219 24.7448 19.1198C23.0469 20.8177 20.9792 21.6667 18.5417 21.6667V19.1667C20.2708 19.1667 21.7448 18.5573 22.9635 17.3386C24.1823 16.1198 24.7917 14.6459 24.7917 12.9167C24.7917 11.1875 24.1823 9.71356 22.9635 8.49481C21.7448 7.27606 20.2708 6.66669 18.5417 6.66669H11.0417C9.31249 6.66669 7.83853 7.27606 6.61978 8.49481C5.40103 9.71356 4.79166 11.1875 4.79166 12.9167C4.79166 14.6459 5.40103 16.1302 6.61978 17.3698C7.83853 18.6094 9.31249 19.2917 11.0417 19.4167H11.5417L9.29166 17.1667L11.0417 15.4167L16.0417 20.4167L11.0417 25.4167Z" fill="#262520"/>
</svg>
